# xmcd
#
# Track frame offsets:
#	150
#	12625
#	23788
#	35618
#	48723
#	58157
#	69612
#	81937
#	92462
#	108598
#
# Disc length: 1614 seconds
#
# Revision: 0
# Processed by: cddbd v1.5.2PL0 Copyright (c) Steve Scherf et al.
# Submitted via: EasyCDDAExtractor 16.0.1.1
#
DISCID=88064c0a
DTITLE=Wanda Jackson - Greatest Hits [Wanda Jackson]
DYEAR=1980
DGENRE=Country
TTITLE0=Right or Wrong
TTITLE1=Fancy Satin Pillows
TTITLE2=If I Cried Every Time You Hurt Me
TTITLE3=A Woman Lives for Love
TTITLE4=I Still Believe in You
TTITLE5=In the Middle of a Heartache
TTITLE6=Tears Will Be a Chaser for Your Wine
TTITLE7=I Can't Stop Now
TTITLE8=One Day At a Time
TTITLE9=A Girl Don't Have to Drink to Have Fun
EXTD=
EXTT0=
EXTT1=
EXTT2=
EXTT3=
EXTT4=
EXTT5=
EXTT6=
EXTT7=
EXTT8=
EXTT9=
PLAYORDER=
